# xmcd
#
# Track frame offsets: 
#        150
#        13755
#        33680
#        55830
#        79305
#        104867
#        123330
#        142180
#        161167
#        177605
#        203674
#        227484
#        245059
#        259249
#        280521
#        295821
#        317279
#        334371
#
# Disc length: 4785 seconds
#
# Revision: 1
# Processed by: cddbd v1.5.2PL0 Copyright (c) Steve Scherf et al.
# Submitted via: ExactAudioCopy v0.99pb3
#
DISCID=1512af12
DTITLE=Steppenwolf - Slow Flux (1974)  and Skullduggery (1976) 
DYEAR=2006
DGENRE=Hard Rock
TTITLE0=Get Into The Wind
TTITLE1=Gang War Blues
TTITLE2=Justice Don't Be Slow
TTITLE3=Children Of Night
TTITLE4=Jeraboah
TTITLE5=Straight Shootin' Woman
TTITLE6=Smokey Factory Blues
TTITLE7=Morning BLue
TTITLE8=A Fool's Fantasy
TTITLE9=Fishin' In The Dark
TTITLE10=Skullduggery
TTITLE11=(I'm A) Road Runner
TTITLE12=Rock and Roll Song
TTITLE13=Train of Thought
TTITLE14=Life Is a Gamble
TTITLE15=Pass It On
TTITLE16=Sleep
TTITLE17=Lip Service
EXTD=Released\t1974\nRecorded\t???\nGenre\tRock\nLength\t45:33\nLabel\t
EXTD=Mums Records (U.S.)/Epic (elsewhere]\nProducer\tSteppenwolf\nPers
EXTD=onnel\nGeorge Biondo - Bass, Vocals\nJerry Edmonton - Drums\nBobb
EXTD=y Cochran - Guitar\nJohn Kay - Guitar, Vocals\nGoldy McJohn - Key
EXTD=boards\n\nReleased\t1976\nRecorded\tJanuary 1976\nGenre\tRock\nLe
EXTD=ngth\t34:26\nLabel\tEpic\nProducer\tSteppenwolf\nPersonnel\nBobby
EXTD=Cochran - Guitar, Vocals\nJohn Kay - Guitar, Vocals\nGeorge Bion
EXTD=do - Bass, Vocals\nWayne Cook - Keyboards\nJerry Edmonton - Art D
EXTD=irection, Drums, Percussion, Vocals (Background]\nMike Reese - Ma
EXTD=stering\nEd Bannon - Engineer\nLorrie Sullivan - Design, Photogra
EXTD=phy\nRandy Nicklaus - Mixdown Engineer
EXTT0=
EXTT1=
EXTT2=
EXTT3=
EXTT4=
EXTT5=
EXTT6=
EXTT7=
EXTT8=
EXTT9=
EXTT10=
EXTT11=
EXTT12=
EXTT13=
EXTT14=
EXTT15=
EXTT16=
EXTT17=
PLAYORDER=
